<svg width="40" height="40" xmlns="http://www.w3.org/2000/svg"><path d="M11.823 19.635c0-4.3 3.486-7.786 7.786-7.786a7.674 7.674 0 013.886 1.047L32 4.391C24.194-1.948 12.86-1.362 5.749 5.749-1.361 12.859-1.948 24.194 4.39 32l8.505-8.505a7.674 7.674 0 01-1.073-3.86z" fill="#00AFFF"/><path d="M35.622 8l-8.505 8.502a7.669 7.669 0 011.06 3.871 7.784 7.784 0 01-7.786 7.782 7.677 7.677 0 01-3.886-1.046L8 35.611c7.806 6.336 19.14 5.75 26.251-1.357 7.11-7.108 7.697-18.438 1.358-26.24L35.622 8z" fill="#0DD149"/></svg>