<svg width="250" height="58.4" overflow="inherit" preserveAspectRatio="xMidYMid" font-size="0" xmlns="http://www.w3.org/2000/svg" xmlns:xml="http://www.w3.org/XML/1998/namespace"><path d="M57.6 9.2h11.5c5.8 0 9.8 4.8 9.8 9.5 0 4.8-3.9 9.6-9.8 9.6h-7.2V36h-4.4V9.2zm11.1 15c3.8 0 5.8-2.9 5.8-5.5 0-2.8-2-5.5-5.8-5.5H62v11.1h6.7zm11.5 2c0-5.7 3.9-10.2 10.1-10.2 6.3 0 9.3 5.3 9.3 10.5v1h-15c.6 3.4 3.5 5.3 7.4 5.3 2.5 0 4.5-.7 6.3-1.8v3.7c-1.6 1.2-4.2 1.9-7.2 1.9-6.1 0-10.9-4.1-10.9-10.4zm15-2c0-2-1.6-4.7-5.1-4.7-3.4 0-5.3 2.3-5.4 4.7h10.5zm8.2-7.7h4.4v7.6h9.9v-7.6h4.4V36h-4.4v-8.2h-9.9V36h-4.4V16.5zm22.4 9.7c0-5.7 3.9-10.2 10.1-10.2 6.3 0 9.3 5.3 9.3 10.5v1h-15c.6 3.4 3.5 5.3 7.4 5.3 2.5 0 4.5-.7 6.3-1.8v3.7c-1.6 1.2-4.2 1.9-7.2 1.9-6.1 0-10.9-4.1-10.9-10.4zm15-2c0-2-1.6-4.7-5.1-4.7-3.4 0-5.3 2.3-5.4 4.7h10.5zm6.9 2c0-6.1 4.8-10.2 10.7-10.2 2.3 0 4.1.4 5.8 1.3V21c-1.8-.9-3.4-1.3-5.3-1.3-3.8 0-7 2.6-7 6.6 0 4 3.1 6.6 7 6.6 2.2 0 3.9-.4 5.5-1.5V35c-1.9 1-3.8 1.6-6.3 1.6-5.6 0-10.4-4.2-10.4-10.4zm18.9 0c0-6.1 4.8-10.2 10.7-10.2 2.3 0 4.1.4 5.8 1.3V21c-1.8-.9-3.4-1.3-5.3-1.3-3.8 0-7 2.6-7 6.6 0 4 3.1 6.6 7 6.6 2.2 0 3.9-.4 5.5-1.5V35c-1.9 1-3.8 1.6-6.3 1.6-5.4 0-10.4-4.2-10.4-10.4zm40.8 6.2v3.2c-.6.4-1.6.6-2.5.6-1.9 0-3.5-.9-4.1-2.8-1.5 1.6-3.8 3.1-7.2 3.1-4.1 0-7.3-2.3-7.3-6.6 0-4.4 3.2-5.7 7.4-5.7h6.7v-.3c0-3.4-2.8-4.2-5.7-4.2-2.3 0-4.7.9-6.1 1.8v-3.8c1.5-.7 3.7-1.6 7.2-1.6 5.3 0 9.1 2.5 9.1 7.4v7.3c0 1.2.7 1.9 1.6 1.9 0 0 .5 0 .9-.3zm-7.2-4.8h-5.1c-2.8 0-4.7.6-4.7 2.5 0 2.2 1.9 2.9 4.2 2.9 2.3 0 4.5-1.2 5.5-2.3v-3.1zm10.3-11.1h4.4v7.6h9.9v-7.6h4.4V36h-4.4v-8.2h-9.9V36h-4.4V16.5zm22.3 9.7c0-6.1 4.8-10.2 10.7-10.2 2.3 0 4.1.4 5.8 1.3V21c-1.8-.9-3.4-1.3-5.3-1.3-3.8 0-7 2.6-7 6.6 0 4 3.1 6.6 7 6.6 2.2 0 3.9-.4 5.5-1.5V35c-1.9 1-3.8 1.6-6.3 1.6-5.6 0-10.4-4.2-10.4-10.4zM57.6 46.5h2v3.8l3.5-3.8h2.5l-4.1 4.4 4.8 5.3h-2.5l-4.1-4.4v4.4h-2.2v-9.7zm11.3 0h4.2c2 0 3.4 1.2 3.4 2.9 0 1.8-1.3 2.9-3.4 2.9H71v3.8h-2v-9.6zm4.1 4.1c.9 0 1.5-.4 1.5-1.2 0-.8-.6-1.2-1.5-1.2h-2v2.3h2zm6.5-4.1h7v1.8h-5.1v1.9h4.1V52h-4.1v2.5h5.4v1.8h-7.3v-9.8zm9.9 7.9h.9c.9-1.3 1.3-3.1 1.3-6.3v-1.5h6.7v7.9h1.3v3.8h-1.9v-1.9h-6.6v1.9h-1.9v-3.9h.2zm7 0v-6.1h-2.8c0 2-.1 4.1-1 6.1h3.8zm6.3-7.9h2v6.3l4.7-6.3h1.8v9.6h-1.9v-6.3l-5 6.3h-1.6v-9.6zm19.3 0v1.8h-3.1v7.9h-2v-7.9h-3.1v-1.8h8.2z" fill="#323e48"/><radialGradient cx="1.854" cy="55.222" r="36.345" fx="1.854" fy="55.222" gradientUnits="userSpaceOnUse" gradientTransform="matrix(1 0 0 -1 0 100)" id="a" xml:space="preserve"><stop offset="0%" stop-color="#D6005E"/><stop offset="100%" stop-color="#E3448A"/></radialGradient><path d="M6.9 46.5H.6v-27c0-9.2 7.6-16.8 16.8-16.8h20.7v16.6c0 9.3-7.6 16.8-16.8 16.8H10.8l2.3-6.3h8c5.8 0 10.5-4.7 10.5-10.5V9H17.2C11.4 9 6.7 13.7 6.7 19.5v27h.2z" fill="url(#a)"/></svg>