<svg width="250" height="47" overflow="inherit" preserveAspectRatio="xMidYMid" font-size="0" xml:space="default" xmlns="http://www.w3.org/2000/svg" xmlns:xml="http://www.w3.org/XML/1998/namespace"><g xml:space="default" fill-rule="evenOdd" fill="none"><path xml:space="default" fill="#282423" d="M218.2 22.4h-14.9v-9.3h-4.2v22.8h4.2v-9.8h14.9v9.8h4.3V13.1h-4.3zM.1 23.5h45.7v22.9H.1zm60.8-10.4v22.7h4.2v-7.6H75c5 0 8.1-2.7 8.1-7.4 0-4.5-3.1-7.7-8.1-7.7H60.9m17.9 7.8c.1 1.9-1.3 3.5-3.2 3.6H65.1v-7.6H75c2-.1 3.8 1.6 3.8 3.6v.4m19.9-8.5c-7.2 0-13.2 4.9-13.2 12s6 12 13.2 12c7.2 0 13.2-4.8 13.2-12s-6-12-13.2-12m0 20.2c-5.4 0-8.9-3.5-8.9-8.2 0-4.7 3.6-8.2 8.9-8.2 5.3 0 8.8 3.6 8.8 8.2s-3.4 8.2-8.8 8.2m30.8-.1c-5.6 0-9.1-3.4-9.1-8.1 0-4.7 3.5-8.1 9-8.1 3 0 5.9 1 8.2 2.8l2.2-3.3c-3-2.3-6.8-3.5-10.6-3.4-7.5 0-13.3 4.9-13.3 12s5.7 12 13.3 12c3.9.1 7.6-1.1 10.8-3.3l-2.2-3.3c-2.4 1.8-5.3 2.8-8.3 2.7m50.9-19.4l-11.1 22.7h4.5l2.6-5.5h12.3l2.6 5.5h4.5l-11.1-22.7h-4.3zm-2.1 13.5l4.4-9.2 4.4 9.2h-8.8zm71.2-13.5h-5.2l-11.4 10.6V13.1h-4.2v22.8h4.2V24.8l11.4 11.1h5.7l-12.2-11.8zm-90.6 8.5H149v-4.8h16.3v-3.6h-20.5v22.7h14.1c5 0 8.4-2.7 8.4-7.2 0-4.6-3.4-7.1-8.4-7.1m.3 10.6h-10.1v-6.8h10.1c2.6 0 4.1 1.4 4.1 3.4 0 2.2-1.2 3.4-4.1 3.4"/><path xml:space="default" fill="#df0032" d="M45.9 23.9v-.4H.1V.6h45.8z"/><path xml:space="default" fill="#2b1917" d="M.1 23.5h45.7v1H.1z"/><path xml:space="default" fill="#fff" d="M8.1 22.1h29.7v2.8H8.1z"/></g></svg>