<svg width="141" height="99" overflow="inherit" preserveAspectRatio="xMidYMid" font-size="0" xml:space="default" xmlns="http://www.w3.org/2000/svg" xmlns:xml="http://www.w3.org/XML/1998/namespace"><g xml:space="default" fill="#c8102e" fill-rule="evenOdd"><path d="M25.048 1.726v26.032h-6.451v-9.677H8.065v9.79H1.613V1.855h6.452v10.403h10.532V1.855h6.451v-.13zM99.42 27.758h-6.451V14.742l-5.871 8.935h-3.549l-5.822-9.064v13.145h-6.452V1.726h4.839l9.177 13.887 9.162-13.887h4.838v26.032h.13zM48.226.613a18.161 18.161 0 00-18.597 17.742 16.468 16.468 0 002.855 9.42h8.92a11.29 11.29 0 1113.628 0h8.936a17.629 17.629 0 002.838-9.42A18.161 18.161 0 0048.226.613z" xml:space="default"/><path d="M42.145 21.323a6.371 6.371 0 0012.145 0H42.145zm69.049-13.888v4.71h11.516v5.452h-11.516v4.468h13.129v5.564h-19.71V1.597h19.71v5.58h-13.13zM19.355 85.29a6.016 6.016 0 003.58-5.645c0-4.21-3.225-6.951-8.919-6.951H1.613v25.983h13.145c5.823 0 9.29-2.838 9.29-7.177a6.226 6.226 0 00-4.693-6.21zm-11.29-7.177h4.838c2.484 0 3.855.855 3.855 2.468s-1.387 2.854-3.855 2.854H8.065v-5.322zm5.822 15.242H8.065v-5.21H14c2.355 0 3.726.871 3.726 2.484s-1.242 2.726-3.839 2.726zm27.645-20.71h-6.21L24.29 98.677h6.952l1.726-4.516H44l1.613 4.452h6.952L41.532 72.645zm-6.58 16.242l3.467-8.79 3.516 8.79h-6.983zM78.71 72.645v26.032h-4.952L61.242 84.435v14.242H54.79V72.645h4.952l12.532 14.63v-14.63zm15.742 16.371l-3.84 4.468v5.322h-6.45V72.774h6.45v11.903l10.404-11.903h7.694l-9.92 11.403 10.79 14.63h-8.064zM48.097 54.194a8.855 8.855 0 004.338-7.807c0-5.71-4.338-9.177-10.79-9.177H30.242v26.032h6.564v-7.565h4.84l4.95 7.565h7.565l-6.064-9.048zm-6.565-4.21h-4.838v-6.952h4.838c2.468 0 4.452 1.371 4.452 3.484S44 49.984 41.532 49.984zm22.307-7.064v4.709H75.37v5.452H63.839v4.467h13.129v5.565h-19.71V37.08h19.71v5.58h-13.13zm28.096-5.581h-10.5V63.37h10.5c8.178 0 14-5.452 14-13.145 0-7.694-6.032-13.016-14-12.887zm0 20.21h-4.048V43.16h4.048a7.145 7.145 0 017.436 7.065 7.355 7.355 0 01-7.436 7.322zm17.388-20.339h6.452v26.032h-6.452zm31.242 5.822h-7.436v20.21h-6.452v-20.21h-7.435V37.21h21.323zM19.71 53.952a6.161 6.161 0 01-5.952 3.838 7.032 7.032 0 01-7.193-7.435 7.032 7.032 0 017.193-7.436 5.984 5.984 0 015.952 3.84h6.806a12.5 12.5 0 00-12.758-9.92C6.293 36.839.242 42.89.242 50.355S6.293 63.87 13.758 63.87a12.5 12.5 0 0012.758-9.92H19.71z" xml:space="default"/></g></svg>