<svg width="249" height="50" overflow="inherit" preserveAspectRatio="xMidYMid" font-size="0" xml:space="default" xmlns="http://www.w3.org/2000/svg" xmlns:xml="http://www.w3.org/XML/1998/namespace"><path xml:space="default" d="M237.4 21.3l10.4-11.4h-7.7l-8.5 9.5V9.9h-6.1v24h6.1V23.8l9.1 10.1h7.9zm-22.8-2.5h-8.4V9.9H200v24h6.2v-9.5h8.4v9.5h6.2v-24h-6.2zM36.5 22.9c-.1 4.5-.7 5.4-3.2 5.4v5.6h.9c6.3 0 7.8-3.2 8-10.4l.3-8h5.9v18.4h6.1v-24H37l-.5 13zm33.3-5.7h-4.4V9.9h-6.1v24H70c6.7 0 9.1-4.3 9.1-8.4-.2-5.4-3.5-8.3-9.3-8.3zm-.5 11.4h-4v-6.1h4c2.1 0 3.4.9 3.4 2.9 0 2.2-1.2 3.2-3.4 3.2zM98.9 9.3V.4h-6.1v8.9c-7 .6-11.8 5.6-11.8 12.5 0 7 4.7 12 11.8 12.6v9h6.1v-9c7-.6 11.8-5.6 11.8-12.6 0-6.9-4.8-11.9-11.8-12.5zm-6.1 19.3c-3.4-.5-5.5-3-5.5-6.8 0-3.7 2.1-6.3 5.5-6.8v13.6zm6.1 0V15.1c3.4.5 5.5 3 5.5 6.8.1 3.7-2.1 6.3-5.5 6.7zm34.8-2.1v-8.1c0-5.9-3.7-9.6-10.1-9.6-6.5 0-10 3.9-10.3 8h6.2c.2-.9 1.2-2.4 4-2.4 2.4 0 3.9 1.1 3.9 4h-6.1c-5.5 0-8.7 2.9-8.7 7.6 0 5 3.5 8.4 8.6 8.4 3.7 0 5.8-1.8 6.7-3.1.8 1.6 2.6 2.5 4.9 2.5h2.1v-5.5c-.8 0-1.2-.5-1.2-1.8zm-6.2-1.6c0 2.8-2 4.3-4.5 4.3-2.2 0-4-.8-4-3.2 0-2.3 1.9-2.7 3.6-2.7h4.9v1.6zM160 13.3h-6.9V6.5H169V.4h-22.3v33.4H160c7.4 0 11.6-3.7 11.6-10.4 0-6.3-4.3-10.1-11.6-10.1zm-.3 14.5h-6.6v-8.7h6.6c3.4 0 5.3 1.6 5.3 4.3 0 2.9-1.9 4.4-5.3 4.4zm35.3-1.3v-8.1c0-5.9-3.7-9.6-10.1-9.6-6.5 0-10 3.9-10.3 8h6.2c.2-.9 1.2-2.4 4-2.4 2.4 0 3.9 1.1 3.9 4h-6.1c-5.5 0-8.7 2.9-8.7 7.6 0 5 3.5 8.4 8.6 8.4 3.7 0 5.8-1.8 6.7-3.1.8 1.6 2.6 2.5 4.9 2.5h2.1v-5.5c-.7 0-1.2-.5-1.2-1.8zm-6.1-1.6c0 2.8-2 4.3-4.5 4.3-2.2 0-4-.8-4-3.2 0-2.3 1.9-2.7 3.6-2.7h4.9v1.6zM.1 43.1h32.8v6.8H.1zM22.5 5c-.9-2.8-2-5-5.7-5S12 2.2 11 5L.8 33.9h6.7L9.8 27h13l2.2 6.9h7.2c-.1 0-.1 0-9.7-28.9zM11.8 21.2l4.6-13.7h.2l4.3 13.7h-9.1z" fill="#ef3024" fill-rule="evenOdd"/></svg>