<svg width="250" height="58.5" overflow="inherit" preserveAspectRatio="xMidYMid" font-size="0" xmlns="http://www.w3.org/2000/svg"><path fill="#ffdd2d" d="M0 0h250v58.5H0z"/><path d="M27.9 24.7h-8.5v-5.2h23.1v5.2h-8.4V39H28l-.1-14.3zm38.2-5.2V39h-5.9V27.7L49.9 39h-5.2V19.5h5.9v11.4l10.2-11.4h5.3zM76.4 39h-5.9V19.5h5.9v7.2h9.5v-7.2h5.9V39h-5.9v-7.2h-9.5V39zm19.7 0V19.5h5.9v5.2h6.1c1.5-.1 2.9.1 4.3.5 2.8.9 4.6 3.6 4.4 6.5.1 3.2-2 6-5.1 6.8-1.2.3-2.5.5-3.7.5H96.1zm6-4.7h5.1c.8.1 1.6 0 2.3-.3.9-.4 1.5-1.3 1.5-2.2 0-1-.6-1.8-1.6-2.1-.7-.2-1.5-.3-2.3-.3H102l.1 4.9zm23.6 4.7h-5.9V19.5h5.9v7.4h1.6l7.2-7.3h7.5l-9.5 9.3 9.9 10.2h-7.9l-7.1-7.4h-1.6l-.1 7.3z"/><path d="M167.4 29.3c0 5.8-4.8 10.3-12.7 10.3-7.9 0-12.8-4.5-12.8-10.3 0-5.8 4.8-10.3 12.8-10.3s12.7 4.5 12.7 10.3zm-6.2 0c0-3.2-2.6-5.5-6.5-5.5s-6.5 2.3-6.5 5.5 2.5 5.5 6.5 5.5 6.5-2.3 6.5-5.5zm37.8-.1c0 5.6-4.5 8.5-12 8.6v2h-5.9v-2c-7.5-.2-11.9-3.1-11.9-8.6s4.5-8.7 11.9-8.9v-1.9h5.9v2c7.5.1 12 3.3 12 8.8zm-17.9-4.6c-4.1.2-5.9 2-5.9 4.7s1.8 4.3 5.9 4.5v-9.2zm11.8 4.6c0-2.6-1.8-4.5-5.9-4.7v9.1c4.1-.1 5.9-1.7 5.9-4.4zm37.6 0c0 5.6-4.5 8.5-12 8.6v2h-5.9v-2c-7.5-.2-11.9-3.1-11.9-8.6s4.5-8.7 11.9-8.9v-1.9h5.9v2c7.5.1 12 3.3 12 8.8zm-17.9-4.6c-4.1.2-5.9 2-5.9 4.7s1.8 4.3 5.9 4.5v-9.2zm11.8 4.6c0-2.6-1.8-4.5-5.9-4.7v9.1c4.2-.1 5.9-1.7 5.9-4.4z"/></svg>