<svg width="250" height="78.2" overflow="inherit" preserveAspectRatio="xMidYMid" font-size="0" xmlns="http://www.w3.org/2000/svg"><path d="M51.7 1.1L26.5 26.4h25.2v50.5l25.2-25.2V1.1H51.7z" clip-rule="evenodd" fill-rule="evenodd" fill="#ea5614"/><path d="M26.5 76.9l25.2-25.2H26.5V1.1L1.3 26.3v50.5h25.2zm154.4-23.4c-8.8 0-13.8-6.5-13.8-14.5 0-6.4 3.6-14.5 13.5-14.5 6.2 0 10.2 3.8 11.6 5.6l8-8.1c-4.8-5.8-12.1-9.5-20.3-9.5-14.6 0-26.1 10.8-26.1 26.5 0 14.6 11.5 26.5 26.1 26.5 8.7 0 16.5-4.3 21.3-10.8l-8.1-8.1c-2.4 4-6.6 6.9-12.2 6.9zm48.2 0h-10V43.4h10c3.1 0 6.3 1.2 6.3 5 0 3.9-3.1 5.1-6.3 5.1zm1.3-20.8h-11.3v-7.6h25.1V13.8h-38.4v50.5h25.1c10.1 0 17.6-5.1 17.6-15.8.2-10.8-7.4-15.8-18.1-15.8zM102 64.2h13.2V25.1h20.1v39.1h13.2V13.8H102v50.4z" clip-rule="evenodd" fill-rule="evenodd" fill="#2c2d85"/></svg>