<svg width="250" height="55" overflow="inherit" preserveAspectRatio="xMidYMid" font-size="0" xml:space="default" xmlns="http://www.w3.org/2000/svg" xmlns:xml="http://www.w3.org/XML/1998/namespace"><g xml:space="default" fill-rule="evenOdd" fill="none"><path d="M1.791 52.336h50.545V1.791H1.791v50.545zM0 54.128h54.128V0H0v54.128zm234.58-32.477h5.14v-5.919h4.75v5.92h5.14V6.931h-5.062v5.218h-4.75V6.93h-5.14v14.72h-.079zm-31.31-10.514c1.09-.7 2.57-1.246 3.816-1.246.623 0 2.103.078 2.103 1.324s-1.246 1.246-1.713 1.246h-2.57v3.193h2.258c.779 0 2.103.078 2.103 1.246 0 .468-.312 1.402-2.103 1.402-1.791 0-2.96-.467-4.44-1.402l-1.323 3.505a13.021 13.021 0 006.62 1.791c5.919 0 6.62-3.427 6.62-4.517 0-1.557-.935-3.115-2.96-3.66 1.324-.545 2.103-1.87 2.103-3.427 0-3.427-3.66-4.128-5.841-4.128-2.103 0-4.44.623-5.997 1.48l1.324 3.193zm-11.137-6.075c2.336 0 4.75-.934 5.841-3.426L194.626.389c-.39 1.714-1.869 1.792-2.492 1.792s-2.025-.078-2.414-1.792l-3.35 1.247c1.013 2.492 3.428 3.426 5.764 3.426zm-8.1 1.87v14.72h4.985l5.14-8.1v8.1h5.14V6.931h-4.984l-5.063 7.943V6.931h-5.218zm-34.268 11.604v-8.178c-1.713 0-3.504 1.246-3.504 4.05s1.791 4.128 3.504 4.128zm4.518-8.178v8.178c1.713 0 3.504-1.246 3.504-4.05 0-2.882-1.713-4.206-3.505-4.128zm-4.83 17.757v-6.152c-3.037 0-8.177-1.246-8.177-7.633 0-6.308 5.063-7.554 8.178-7.554V.312h5.14v6.386c3.115 0 8.178 1.246 8.178 7.554 0 6.387-5.063 7.633-8.178 7.633v6.152h-5.14v.078zm-22.896-9.58v-8.177c-1.714 0-3.505 1.246-3.505 4.05s1.713 4.128 3.505 4.128zm4.517-8.177v8.178c1.713 0 3.504-1.246 3.504-4.05 0-2.882-1.79-4.206-3.504-4.128zm-4.829 17.757v-6.152c-3.037 0-8.177-1.246-8.177-7.633 0-6.308 5.062-7.554 8.177-7.554V.312h5.14v6.386c3.116 0 8.178 1.246 8.178 7.554 0 6.387-5.062 7.633-8.178 7.633v6.152h-5.14v.078zM108.333 5.062c2.337 0 4.751-.934 5.841-3.426L110.825.389c-.389 1.714-1.869 1.792-2.414 1.792-.623 0-2.025-.078-2.492-1.792l-3.349 1.247c1.013 2.492 3.427 3.426 5.763 3.426zm-8.022 1.87v14.72h4.985l5.14-8.1v8.1h5.14V6.931h-4.984l-5.14 7.866V6.93h-5.14zM68.77 4.671V9.58h1.87c2.57 0 2.803-1.557 2.803-2.492 0-1.09-.389-2.414-2.803-2.414h-1.871zm-5.607 16.98V0h8.723c5.919 0 7.554 4.206 7.554 7.165 0 2.96-1.713 7.165-7.554 7.165h-3.193v7.399h-5.53v-.078zm117.68-14.72v14.72H175.7v-1.636h-.078c-.934 1.48-2.726 2.102-4.361 2.102-4.284 0-7.321-3.66-7.321-7.866 0-4.205 2.96-7.866 7.243-7.866 1.635 0 3.427.623 4.517 1.947V6.931h5.14zm-8.334 4.05c-2.103 0-3.35 1.557-3.35 3.348 0 1.87 1.247 3.271 3.35 3.271 2.103 0 3.349-1.402 3.349-3.27 0-1.792-1.246-3.35-3.35-3.35zm-75.39-4.05v14.72H91.9v-1.636c-.934 1.48-2.726 2.102-4.361 2.102-4.284 0-7.32-3.66-7.32-7.866 0-4.205 2.959-7.866 7.242-7.866 1.636 0 3.427.623 4.517 1.947V6.931h5.14zm-8.333 4.05c-2.103 0-3.349 1.557-3.349 3.348 0 1.87 1.246 3.271 3.349 3.271s3.349-1.402 3.349-3.27c0-1.792-1.246-3.35-3.349-3.35zm143.302 3.971v.545h-10.825c0 2.103 1.09 3.271 3.193 3.271 1.09 0 1.869-.389 2.492-1.324h4.984c-.856 3.505-4.05 5.063-7.398 5.063-4.829 0-8.411-2.726-8.411-7.866 0-4.907 3.348-7.866 8.021-7.866 4.985 0 7.944 3.115 7.944 8.177zm-10.747-2.492h5.996c-.233-1.402-1.557-2.336-2.881-2.336-1.558 0-2.804.856-3.115 2.336zM71.417 45.171H69.86l-.779 4.595h1.48c3.427 0 4.05-.934 4.283-2.18.234-1.402-.078-2.415-3.427-2.415zm9.346 2.493c-.233 1.48-.7 2.959-1.791 3.972-2.336 2.336-5.841 2.492-8.022 2.57h-8.645l3.66-21.651h14.798l-.7 4.283h-8.957l-.701 4.361h2.57c1.947 0 4.361.234 6.075 1.714 1.324 1.012 2.025 2.648 1.713 4.75zm15.577 2.725h-8.178l-2.18 3.739h-6.31l12.384-21.651h6.464l4.985 21.65h-6.309l-.856-3.738zm-.935-4.283l-1.246-6.932h-.078l-3.583 6.932h4.907zm41.121-13.63h-5.996l-3.583 21.652h5.919l1.558-9.424h.078l6.074 9.424h7.71l-8.021-11.371 10.748-10.28h-7.321l-8.645 8.956h-.078l1.558-8.956zm-22.897 0l-1.324 8.1h7.866l1.324-8.1h5.764l-3.505 21.652h-5.763l1.48-9.346h-7.867l-1.48 9.346h-5.763l3.505-21.651h5.763z" xml:space="default" fill="#000"/><path xml:space="default" fill="#ffed00" d="M1.791 52.336h50.545V1.791H1.791z"/><path d="M27.103 33.255L11.526 48.832l-6.152-6.153L20.95 27.103l-3.27-3.271v-6.387l-2.26-2.258v5.607l-1.946 1.947-7.944-7.943-1.947 1.947c0-1.48.311-5.764 3.894-9.268 3.894-3.739 8.1-2.025 9.58-.623l7.865 7.944-2.025 2.024 4.128 4.128 4.128-4.128-1.947-2.024 7.866-7.944c1.402-1.48 5.685-3.116 9.58.623a13.23 13.23 0 013.893 9.268l-1.947-1.947-7.866 7.943-1.947-1.947v-5.607l-2.259 2.258v6.387l-3.27 3.27L48.831 42.68l-6.153 6.153-15.576-15.577z" xml:space="default" fill="#000"/></g></svg>