<svg width="250" height="31" overflow="inherit" preserveAspectRatio="xMidYMid" font-size="0" xml:space="default" xmlns="http://www.w3.org/2000/svg" xmlns:xml="http://www.w3.org/XML/1998/namespace"><g xml:space="default" fill-rule="evenOdd" fill="none"><path d="M50.326 10.594c-.671-1.256-.272-2.859.889-3.585L62.185.174c.375-.232.84-.232 1.214.002l10.966 6.833c1.164.726 1.562 2.329.89 3.585-.67 1.253-2.157 1.683-3.32.959l-9.145-5.7-9.145 5.7c-1.161.724-2.648.294-3.319-.959" xml:space="default" fill="#ee3224"/><path d="M205.37 24.071l1.456-5.047 1.462 5.047h-2.919zm4.021-9.773a.46.46 0 00-.43-.307h-4.264a.462.462 0 00-.433.307l-5.77 15.72a.49.49 0 00-.031.166.47.47 0 00.461.477h4.195c.21 0 .385-.144.442-.337l.706-2.451h5.122l.708 2.45a.467.467 0 00.441.338h4.195a.468.468 0 00.458-.477.545.545 0 00-.027-.167l-5.773-15.719zm35.43 8.027l4.874-7.59a.489.489 0 00.079-.27.464.464 0 00-.457-.474h-4.237a.458.458 0 00-.395.23l-4.15 7.065v-6.821a.466.466 0 00-.46-.474h-3.979a.468.468 0 00-.46.474v15.722c0 .261.206.474.46.474h3.98a.466.466 0 00.458-.474v-6.818l4.15 7.063a.462.462 0 00.396.229h4.237a.466.466 0 00.457-.477.463.463 0 00-.079-.265l-4.874-7.594zm-54.41 4.55h-1.854v-2.823h1.855c1.443 0 2.08.514 2.103 1.427-.025.886-.66 1.396-2.103 1.396zm1.629-6.606h-3.483v-2.476h7.343a.468.468 0 00.457-.478v-2.85a.466.466 0 00-.457-.474h-11.784a.464.464 0 00-.456.474v15.72c0 .261.203.476.456.476h7.924c5.086 0 5.454-3.854 5.46-5.21-.006-1.33-.374-5.182-5.46-5.182zm39.37-6.278h-3.977a.468.468 0 00-.46.474v5.804h-4.741v-5.804a.466.466 0 00-.458-.474h-3.978a.467.467 0 00-.46.474v15.72c0 .261.204.476.46.476h3.978a.468.468 0 00.458-.477v-6.113h4.74v6.113a.47.47 0 00.46.477h3.979c.256 0 .46-.215.46-.477v-15.72a.467.467 0 00-.46-.473zm-121.302 0h-3.979a.466.466 0 00-.459.474v6.842c-3.813.595-4.484-.8-4.484-2.011v-4.831a.468.468 0 00-.459-.474h-3.982a.467.467 0 00-.445.36c-.005.633-.017 2.003-.012 3.31.007 1.764.041 3.733.151 4.423.355 2.228 2.31 3.095 4.3 3.342 1.81.228 3.765-.035 4.931-.339v5.097c0 .262.205.477.46.477h3.978a.47.47 0 00.46-.477v-15.72a.468.468 0 00-.46-.473zm29.308 12.884h-1.882v-3.014h1.882c.353 0 .845.033 1.238.232.368.186.667.523.667 1.21 0 1.322-1.193 1.572-1.905 1.572zm.422-6.798h-2.304v-5.612a.468.468 0 00-.46-.474h-3.98a.466.466 0 00-.458.474v15.72c0 .261.204.476.457.476h6.745c4.168 0 6.38-1.869 6.38-5.358 0-3.482-2.222-5.226-6.38-5.226zm12.96-6.086h-3.98a.464.464 0 00-.456.474v15.72c0 .261.202.476.456.476h3.98a.47.47 0 00.46-.477v-15.72a.469.469 0 00-.46-.473zm-66.95 12.836c-1.654 0-3.325-1.432-3.325-4.504 0-2.516 1.215-4.499 3.325-4.499 2.11 0 3.325 1.983 3.325 4.5 0 3.071-1.671 4.503-3.325 4.503zm0-13.125c-4.703 0-8.205 3.348-8.205 8.621 0 3.47 2.009 8.63 8.205 8.63 6.195 0 8.204-5.16 8.204-8.63 0-5.273-3.504-8.621-8.204-8.621zm85.097.289h-4.16a.448.448 0 00-.404.248l-4.46 8.615v-8.39a.468.468 0 00-.458-.473h-3.982a.468.468 0 00-.458.474v15.72a.47.47 0 00.458.476h4.168a.468.468 0 00.404-.25l4.452-8.625v8.398a.47.47 0 00.46.477h3.98a.468.468 0 00.459-.477v-15.72a.466.466 0 00-.459-.473zm-42.535 0h-3.977a.467.467 0 00-.46.474v5.804h-4.741v-5.804a.468.468 0 00-.46-.474h-3.98a.468.468 0 00-.459.474v15.72a.47.47 0 00.459.476h3.98a.47.47 0 00.46-.477v-6.113h4.74v6.113c0 .262.205.477.46.477h3.978a.468.468 0 00.459-.477v-15.72a.466.466 0 00-.459-.473zM23.976 26.827c-1.655 0-3.325-1.432-3.325-4.504 0-2.516 1.212-4.499 3.325-4.499 2.112 0 3.325 1.983 3.325 4.5 0 3.071-1.671 4.503-3.325 4.503zm0-13.125c-4.702 0-8.205 3.348-8.205 8.621 0 3.47 2.007 8.63 8.205 8.63 6.195 0 8.206-5.16 8.206-8.63 0-5.273-3.504-8.621-8.206-8.621zm18.337 4.22c1.221 0 2.387.63 3.182 1.612a.45.45 0 00.65 0l2.225-2.882c.179-.186.179-.486-.013-.696-1.59-1.451-3.741-2.254-6.044-2.254-4.7 0-8.202 3.348-8.202 8.621 0 3.47 2.01 8.63 8.202 8.63 2.639 0 4.625-.942 6.031-2.3.18-.19.18-.489-.015-.719l-2.152-2.788a.45.45 0 00-.65 0c-.88 1.057-2.187 1.585-3.214 1.585-1.658 0-3.325-1.408-3.325-4.408 0-2.457 1.213-4.402 3.325-4.402zm121.9-5.199c2.436 0 4.01-1.064 4.956-2.45a.485.485 0 00-.112-.66l-2.372-1.236c-.188-.09-.412-.033-.592.205-.48.705-1.18 1.048-1.88 1.048-.697 0-1.4-.343-1.882-1.048-.177-.238-.402-.295-.59-.205l-2.369 1.236a.482.482 0 00-.115.66c.945 1.386 2.52 2.45 4.957 2.45zM6.754 26.875H4.9v-2.747h1.854c1.388 0 2.104.565 2.104 1.322 0 .893-.633 1.425-2.104 1.425zM4.9 17.777h1.67c.35 0 .801.035 1.162.223.336.175.605.482.605 1.107 0 .775-.47 1.235-1.767 1.235H4.9v-2.565zm7.272 4.6a5.427 5.427 0 00-1.238-.676c.862-.484 2.024-1.495 2.024-3.333 0-.65-.019-4.377-5.006-4.377H.458a.467.467 0 00-.458.474v15.72c0 .261.205.476.458.476h7.924c5.12 0 5.458-3.955 5.458-4.771 0-1.803-.81-2.876-1.669-3.513zm61.36-8.386H52.61c-.682 0-1.235.573-1.235 1.282v12.504c0 1.593 1.246 2.884 2.784 2.884 1.538 0 2.784-1.29 2.784-2.884v-8.658h3.342v8.658c0 1.593 1.248 2.884 2.786 2.884 1.537 0 2.784-1.29 2.784-2.884v-8.658h3.342v8.658c0 1.593 1.248 2.884 2.784 2.884 1.54 0 2.786-1.29 2.786-2.884V15.273c0-.709-.554-1.282-1.237-1.282z" xml:space="default" fill="#215499"/></g></svg>