<svg width="250" height="53" overflow="inherit" preserveAspectRatio="xMidYMid" font-size="0" xml:space="default" xmlns="http://www.w3.org/2000/svg" xmlns:xml="http://www.w3.org/XML/1998/namespace"><g xml:space="default" fill="#1e3262" fill-rule="evenOdd"><path d="M.833 26.389A25.488 25.488 0 0126.39.833 25.488 25.488 0 0151.944 26.39 25.488 25.488 0 0126.39 51.944 25.488 25.488 0 01.833 26.39m-.833 0c0 14.444 11.944 26.389 26.389 26.389 14.444 0 26.389-11.945 26.389-26.39C52.778 11.945 40.833 0 26.388 0 11.945 0 0 11.944 0 26.389" xml:space="default"/><path d="M43.333 23.611c-.277.278-.555.278-.555.556-1.39 1.11-3.89 1.944-6.945 2.777-6.666 1.667-11.389 1.945-16.944 3.334-1.111.278-2.222.555-3.333 1.11 1.11.556 2.222 1.112 3.333 1.39 2.222-.556 3.333-.834 6.389-1.39 1.11-.277 5-.832 7.778-1.388 4.722-1.111 11.944-3.333 10.277-6.389zM40 17.5c-1.111-.556-2.222-.833-3.611-1.389-.556.556-1.389.833-2.5 1.389 1.667.278 3.055.833 4.444 1.111.278.278 1.39-.833 1.667-1.111zm-24.167 6.667c6.39-1.945 13.334-2.5 20-4.445-2.777-.833-4.166-1.11-6.944-.555-4.167.555-8.611 1.389-12.5 2.5-1.389.555-9.445 2.777-7.222 5.833 0 0 1.389-1.944 6.666-3.333zM11.39 35c0 .556.278 1.111 1.111 1.667 0-.278.278-.556.556-.834L11.389 35zm3.055-.278l1.667-.833c-.833-.278-1.944-.833-2.778-1.111-.555.278-.833.555-1.11.833.833.278 1.388.556 2.221 1.111zm24.723-13.61c-1.39.555-3.056 1.11-5.834 1.666-2.222.555-7.5 1.389-13.333 2.5-1.667.278-6.667 1.666-9.167 3.61.556.556 1.111.556 1.945 1.112 1.11-.556 2.222-1.389 4.444-1.667 3.611-.833 6.111-1.389 9.167-1.944 3.055-.556 9.167-1.667 12.222-2.778 1.111-.278 1.945-.833 2.778-1.389 0-.278-2.222-1.389-2.222-1.11zm1.944-1.39l1.667.834c.278-.834.278-1.39-.556-1.945-.278.556-.833.833-1.11 1.111zm-30 11.667c-.555-.278-.833-.556-1.389-.833-.278.555.278 1.11.834 1.388l.555-.555zm27.5-17.778c0 .556-.555.833-.833 1.389.833.278 1.944.556 2.778.833-.278-.833-1.112-1.666-1.945-2.222zM8.333 19.167C15 14.722 22.5 12.222 35.278 14.444c.555-.277 1.11-.833 1.389-1.666-3.056-1.111-6.667-1.667-11.111-1.39-3.89 0-11.112 1.668-15 3.89l1.11-1.39c2.778-1.666 9.723-3.61 15-3.888 3.612 0 5.556 0 10 1.389-.277-.833-1.388-1.111-2.5-1.667-4.166-1.944-12.222-1.944-18.61.834.833-.556 1.666-1.112 2.777-1.39 2.223-1.11 5.556-1.944 10-1.944 3.611 0 7.778 1.39 10.278 3.89.556.555.556 1.11.833 1.388 1.945 1.111 3.056 1.944 3.89 3.056.277.555.277 1.11.277 1.944.833.556 1.111.833 1.667 1.389.278.555.555 1.111.555 1.389 0 .555.278 1.389-.555 2.222.555.278 1.11 1.389 1.389 1.667.277 1.389-.556 3.055-1.945 4.166-1.389 1.39-4.722 2.778-7.5 3.611-5.278 1.39-10 1.945-13.61 2.5 1.666.278 3.888.834 7.5.834 7.777 0 15-3.611 15-3.611s-.279.555-.279.833c-5 3.056-13.055 4.167-16.389 4.167-4.166-.278-7.222-.834-10-1.667l-2.5.833c4.445 1.945 7.5 2.5 11.39 2.778 3.888.278 10-.555 15.277-2.5-.278.278-.278.556-.555.833-2.778 1.39-8.334 2.778-11.39 3.056-2.777 0-6.388 0-9.444-.556-2.5-.555-4.722-1.388-6.944-2.222-.278.278-.556.556-.556 1.111 8.611 4.445 16.945 4.723 26.111 1.667l-.833.833c-10.278 4.167-18.056 2.5-24.444-.555C15.278 40.278 15 40 15 40c.556 1.111 5.278 4.444 10.556 5 3.61.278 8.055-.278 10.555-1.389l-1.667.833C33.056 45 29.722 46.39 25 46.111c-6.389-.555-9.722-3.333-11.389-4.722-.833-.556-1.111-1.389-1.389-2.5C10.833 38.056 10 37.5 9.167 36.11c-.556-.555-.278-1.389-.278-1.944l.278-.556c-.556-.555-1.39-1.111-1.667-1.667-.556-1.11-.278-1.944.278-2.777-.278-.556-.834-.834-.834-1.39-.277-.555-.277-1.11-.277-1.666 0-.833.555-1.667 1.389-2.5 1.388-1.667 3.61-2.778 7.222-4.167 3.61-1.11 5-1.388 7.778-1.944 3.055-.833 6.944-1.111 10.277-2.222-8.889-1.667-18.055 0-25.555 5l.555-1.111zm77.778 2.5l1.111 6.944h-1.944l.833-6.944zm-8.055 16.389h5.555l.556-3.89h3.61l.556 3.89h5.556L89.167 15H82.5l-4.444 23.056zm21.111-14.167c.833 0 2.5-.556 2.5-2.222 0-1.945-1.945-2.223-2.223-2.223-.555 0-1.666 0-3.055.556v-5c1.944-.556 3.055-.556 4.722-.556 4.445 0 6.389 3.056 6.389 6.112 0 3.055-1.667 4.722-3.333 5.277v.278c1.666.556 3.61 1.945 3.61 5.556 0 4.444-3.055 6.666-6.944 6.666-1.944 0-3.333-.277-5-1.11V32.5c1.39.556 2.5.833 3.611.833 1.667 0 2.5-1.389 2.5-2.222 0-1.389-.833-2.222-2.777-2.222h-2.223v-5h2.223zM110 14.722h14.722v23.334h-5.278V20.278h-3.888v17.778H110zM133.056 20h1.388c1.112 0 1.945.833 1.945 2.778 0 2.5-1.389 2.778-1.945 2.778h-1.388V20zm-5.278 18.056h5.278v-7.5h1.666c5.278 0 6.945-4.723 6.945-7.778 0-3.056-1.945-7.778-6.945-7.778h-6.944v23.056zm24.166-5.556c-1.944 0-2.777-2.222-2.777-6.389s.833-6.389 2.777-6.389c1.945 0 2.778 2.222 2.778 6.39 0 4.166-1.11 6.388-2.778 6.388m0 5.833c6.39 0 8.612-5.833 8.612-11.944 0-6.111-2.223-11.945-8.612-11.945-6.388 0-8.61 5.834-8.61 11.945 0 6.111 2.222 11.944 8.61 11.944m36.945-5v-5.277h.833c.556 0 2.222 0 2.222 2.5s-1.666 2.777-2.222 2.777h-.833zm-5.278 4.723H190c1.389 0 7.222-.556 7.222-7.5 0-5.834-4.444-6.945-7.5-6.945h-.833v-3.055h7.222V15H183.89v23.056h-.278zm33.056-23.334h5v8.334h3.889v-8.334h5.277v23.334h-5.277V28.61h-3.89v9.445h-5zm17.777 0h5.278l-.278 8.334h1.39l2.777-8.334h5.833l-4.166 11.111L250 38.056h-6.111l-3.056-9.445h-1.389l.278 9.445h-5.278zm-166.666 0H78.61v5.834h-5.555v17.5h-5.278zm95 0h4.722l3.889 5.556 4.167-5.556H180v23.334h-5.278V23.889l-3.333 3.889-3.056-3.89v14.168h-5.555zm43.611 7.222l1.111 6.945h-1.944l.833-6.945zm-8.056 16.112h5.556l.555-3.89h3.612l.555 3.89h5.556L209.444 15h-6.666l-4.445 23.056z" xml:space="default"/></g></svg>