<svg xmlns="http://www.w3.org/2000/svg" width="36" height="36"><g fill="none" fill-rule="evenodd"><path fill="#CCF0FF" d="M18 35c0-9.941-8.059-18-18-18v18h18z"/><path stroke="#00B0FF" stroke-linecap="round" stroke-linejoin="round" stroke-width="2" d="M21 8l6 6v17H7V8z"/><path stroke="#00B0FF" stroke-linecap="round" stroke-linejoin="round" stroke-width="2" d="M26.862 14h-6l.014-6M13 20h8-8zm0 4h8-8zM32.78 9.519a7.046 7.046 0 00-2.058-5.166 7.045 7.045 0 00-5.166-2.058m3.582 7.34a3.484 3.484 0 00-1.012-2.686 3.484 3.484 0 00-2.686-1.012"/></g></svg>