<svg xmlns="http://www.w3.org/2000/svg" width="36" height="36"><g fill="none" fill-rule="evenodd"><path fill="#CCF0FF" d="M-.005 18.995c9.941 0 18-8.059 18-18h-18v18z"/><path stroke="#00B0FF" stroke-linecap="round" stroke-linejoin="round" stroke-width="2" d="M28.156 26.998H7.534c-1.479 0-2.688-1.05-2.688-2.334V12.331c0-1.283 1.21-2.333 2.688-2.333h20.622c1.479 0 2.69 1.05 2.69 2.333v12.333c0 1.284-1.211 2.334-2.69 2.334zm-5.603 0l.472 5h-9.18l.237-2.5.236-2.5"/><path stroke="#00B0FF" stroke-linecap="round" stroke-linejoin="round" stroke-width="2" d="M13 22.788l2.73-3.683 2.746 1.721 3.653-5.563 2.668 1.842 9.181-11.34"/><path stroke="#00B0FF" stroke-linecap="round" stroke-linejoin="round" stroke-width="2" d="M34.902 8.998v-4h-4.056m-19 27h13"/></g></svg>